<?xml version="1.0" encoding="UTF-8"?> <!-- Generator: Adobe Illustrator 16.0.0, SVG Export Plug-In . SVG Version: 6.00 Build 0) --> <svg xmlns="http://www.w3.org/2000/svg" xmlns:xlink="http://www.w3.org/1999/xlink" id="Capa_1" x="0px" y="0px" width="115px" height="115px" viewBox="0 0 115 115" xml:space="preserve"> <g> <path fill="#929292" d="M72.7236328,110.8535156c18.6181641-5.4648438,31.0332031-20.4804688,33.9775391-27.625 l-1.2382813-2.3007813l-0.4267578-0.0878906l-0.3671875-0.1425781l-0.3681641,0.2011719l-0.2587891-0.4003906l-2.7314453-0.9941406 l-1.2509766-1.046875l-0.7460938-0.6015625l3.1416016-3.9101563c0.0996094-0.125,0.1845703-0.2558594,0.2705078-0.3847656 c-0.0390625-0.4238281-0.1357422-0.8662109-0.296875-1.3212891c-0.2333984-0.6533203-0.5751953-1.3320313-1.0273438-2.0234375 c-0.2998047-0.4619141-0.6513672-0.9316406-1.0517578-1.4111328c-0.6015625-0.71875-1.3105469-1.4511719-2.1337891-2.2070313 L84.4052734,53.9394531c-1.0097656-0.9267578-1.9082031-1.8925781-2.6992188-2.8994141 c-0.2597656-0.3388672-0.5126953-0.6777344-0.7509766-1.0224609c2.2158203,6.4648438,1.2382813,13.6357422-2.3662109,20.0693359 c-0.5820313,1.0361328-1.3095703,1.96875-2.0048828,2.9033203c-3.7490234,5.0371094-9.1591797,8.7207031-15.0009766,9.859375 c0.0019531,0-0.2421875,0.2929688-0.2402344,0.2929688c-0.1054688,0.1914063,0.2246094,0.1367188,0.2529297,0.1914063"></path> <path fill="#929292" d="M24.2636719,13.0703125c-3.0576172,2.0302734-11.2714844,10.0927734-14.7919922,16.7587891 c11.9628906,8.6464844,20.1923828,14.7109375,22.5976563,17.7548828c0.1152344,0.1230469,0.7734375,1.078125,0.8867188,1.1992188 c-0.6835938,4.3808594,1.5361328-2.8623047,2.0507813-3.6523438c6.2734375-9.6660156,17.5839844-13.9296875,27.6757813-11.3427734 c-1.2617188-0.7402344-2.4619141-1.609375-3.5839844-2.6386719l-9.7363281-14.1855469L46.2119141,3.1904297 c0,0-3.8125,1.0039063-6.2763672,1.7109375C36.9775391,5.8212891,31.0029297,8.1904297,24.2636719,13.0703125z"></path> <path fill="#767676" d="M72.2431641,108.296875c-0.7402344-2.9238281-1.6074219-5.7617188-2.5878906-8.5214844 C70.8896484,103.3925781,71.7138672,106.2636719,72.2431641,108.296875z"></path> <path fill="#767676" d="M69.6904297,99.875c-0.0136719-0.03125-0.0234375-0.0683594-0.0351563-0.0996094 c-0.1230469-0.3476563-0.2636719-0.6894531-0.3916016-1.0390625C69.4072266,99.1171875,69.5537109,99.4921875,69.6904297,99.875z"></path> <path fill="#767676" d="M66.1650391,109.6621094c0.109375,0.859375,0.2080078,1.7207031,0.2988281,2.5839844 c0.0019531,0,0.0078125,0,0.0117188-0.0019531c-0.0585938-0.5957031-0.1552734-1.4589844-0.3105469-2.5722656V109.6621094z"></path> <polygon fill="#505050" points="103.1865234,85.4707031 103.1865234,85.4726563 103.1865234,85.4726563 "></polygon> <path fill="#929292" d="M34.6181641,44.46875c-0.5126953,0.7910156-0.9257813,2.9658203-1.3496094,3.7900391 c-0.1113281-0.1269531-0.6152344-0.6074219-0.7294922-0.7265625c0.4951172,0.6201172,1.4248047,1.0810547,1.5537109,0.7695313 c0.3476563-0.8085938,0.7353516-1.6054688,1.1738281-2.3886719c5.5878906-9.9726563,17.0175781-14.5976563,27.6035156-12.0019531 c-0.0654297-0.0380859-0.1230469-0.0849609-0.1875-0.1230469C52.5908203,31.2011719,40.8935547,34.8046875,34.6181641,44.46875z"></path> <path fill="#6A6A6A" d="M69.6904297,99.875c-0.1367188-0.3828125-0.2832031-0.7578125-0.4267578-1.1386719 c-0.6640625-1.8085938-1.3720703-3.5957031-2.1328125-5.3417969c-0.1630859-0.3710938-0.3310547-0.7421875-0.5009766-1.1132813 c-0.1230469-0.2675781-0.2451172-0.5332031-0.3681641-0.796875c-0.3974609-0.8613281-0.8134766-1.7148438-1.2314453-2.5703125 c-0.2011719-0.4023438-0.3945313-0.7890625-0.5820313-1.1660156c-0.4199219-0.828125-0.8417969-1.6503906-1.28125-2.4648438 C62.71875,84.453125,62.2734375,83.625,61.8056641,82.8046875c0.0117188,0,0.0253906-0.0039063,0.0351563-0.0058594 c-5.6777344,1.203125-11.8007813,0.4335938-17.265625-2.625c-11.3183594-6.3457031-15.734375-20.2382813-10.4863281-31.8476563 c0,0-0.0019531-0.0029297-0.0078125-0.0068359c0,0,0,0.0068359-0.0019531,0.0068359 c-0.0478516-0.0478516-0.1015625-0.0908203-0.1542969-0.1396484C18.1289063,34.7119141,11.6337891,30.5283203,9.7099609,29.4111328 C3.8164063,39.4794922,1.0283203,51.4765625,2.5039063,63.9550781 c3.6005859,30.4472656,31.2070313,52.2070313,61.6533203,48.6015625c2.984375-0.3515625,5.8818359-0.9433594,8.6835938-1.734375 c-0.4394531-1.9472656-0.0351563-0.3066406-0.6015625-2.5351563C71.5107422,105.4023438,70.6552734,102.5996094,69.6904297,99.875z "></path> <path fill="#979797" d="M34.0791016,48.3261719c0.0019531,0,0.0019531-0.0029297,0.0019531-0.0029297 c-0.0498047-0.0488281-0.1035156-0.0908203-0.15625-0.1367188C33.9775391,48.2353516,34.03125,48.2783203,34.0791016,48.3261719z"></path> <path fill="#767676" d="M34.0927734,48.3017578c-0.0039063,0.0058594-0.0039063,0.0107422-0.0117188,0.0175781 c0.0058594,0.0039063,0.0078125,0.0039063,0.0078125,0.0039063C34.1113281,48.3447266,34.1083984,48.3300781,34.0927734,48.3017578 z"></path> <path fill="#767676" d="M34.0810547,48.3193359c0.0058594,0.0039063,0.0078125,0.0039063,0.0078125,0.0039063 S34.0869141,48.3232422,34.0810547,48.3193359L34.0810547,48.3193359z"></path> <path fill="#888888" d="M69.6552734,99.7753906c0-0.0058594-0.0039063-0.0097656-0.0058594-0.0195313 c-0.5644531-1.6425781-1.2236328-3.2890625-1.9023438-4.8984375c0.5292969,1.2773438,1.0361328,2.5683594,1.5166016,3.8789063 C69.3916016,99.0859375,69.5322266,99.4277344,69.6552734,99.7753906z"></path> <path fill="#888888" d="M69.2636719,98.7363281c-0.4804688-1.3105469-0.9873047-2.6015625-1.5166016-3.8789063 c-0.2060547-0.484375-0.4082031-0.984375-0.6162109-1.4628906C67.8916016,95.140625,68.5996094,96.9277344,69.2636719,98.7363281z"></path> <path fill="#888888" d="M63.1669922,85.2832031c-0.8242188-1.5351563-1.3613281-2.4785156-1.3613281-2.4785156 C62.2734375,83.625,62.71875,84.453125,63.1669922,85.2832031z"></path> <path fill="#767676" d="M65.0302734,88.9140625c-0.1904297-0.390625-0.3886719-0.7773438-0.5820313-1.1660156 C64.6357422,88.125,64.8291016,88.5117188,65.0302734,88.9140625z"></path> <path fill="#767676" d="M69.6904297,99.875c0.9648438,2.7246094,1.8203125,5.5273438,2.5488281,8.4121094 C71.5126953,105.4179688,70.6591797,102.6132813,69.6904297,99.875z"></path> <path fill="#767676" d="M66.2617188,91.484375c-0.4189453-0.9023438-0.8349609-1.7636719-1.2314453-2.5703125 C65.4482422,89.7695313,65.8642578,90.6230469,66.2617188,91.484375z"></path> <path fill="#767676" d="M64.4482422,87.7480469c-0.4707031-0.9238281-0.9082031-1.7617188-1.28125-2.4648438 C63.6064453,86.0976563,64.0283203,86.9199219,64.4482422,87.7480469z"></path> <path fill="#888888" d="M45.2890625,15.1513672c0.1357422,0.3847656,0.2841797,0.7617188,0.421875,1.1425781 c0.6689453,1.8105469,1.3759766,3.5996094,2.1396484,5.3515625c0.1630859,0.3759766,0.3339844,0.7460938,0.5019531,1.1152344 c0.1220703,0.2734375,0.2480469,0.5351563,0.3701172,0.7988281c0.3974609,0.8671875,0.8134766,1.7207031,1.2333984,2.5722656 c0.1992188,0.4072266,0.3945313,0.7949219,0.5839844,1.1679688c0.4199219,0.8339844,0.8427734,1.65625,1.2822266,2.4736328 c0.4511719,0.8291016,0.8974609,1.6611328,1.3642578,2.4853516c-0.0117188,0,0.484375,0.8710938,0.9882813,1.0585938 c6.9882813-0.65625,11.8808594,1.4951172,15.2929688,2.4121094c0,0,1.9628906,0.6416016,3.3339844,0.5761719 c3.046875-0.2958984,4.6503906-1.1523438,5.2890625-1.4433594c0.2041016,0.0107422,0.1689453,0.0888672,0.1660156,0.1523438 c-0.5664063,1.1621094-1.0761719,2.8535156-1.1074219,4.0996094c-0.4648438,6.3623047,7.78125,12.5039063,3.2539063,27.1386719 c0.0029297,0,0.5576172,0.5556641,0.5605469,0.5556641c0,0,0-0.0029297,0.0029297-0.0068359 c0.0498047,0.046875,0.1005859,0.09375,0.1552734,0.1425781c15.8291016,13.5009766,22.390625,15.6826172,25.5175781,16.4501953 c5.5888672-11.9873047,6.9121094-22.0537109,5.9648438-32.2509766 C109.7744141,20.5546875,81.3349609-1.1669922,50.8310547,2.4453125C47.8398438,2.8007813,44.9375,3.3896484,42.1328125,4.1884766 c0.1904297,0.8476563,0.3857422,1.6972656,0.5966797,2.5361328C43.4619141,9.6171875,44.3212891,12.4208984,45.2890625,15.1513672z "></path> </g> </svg> 