<?xml version="1.0" encoding="UTF-8"?> <!-- Generator: Adobe Illustrator 16.0.0, SVG Export Plug-In . SVG Version: 6.00 Build 0) --> <svg xmlns="http://www.w3.org/2000/svg" xmlns:xlink="http://www.w3.org/1999/xlink" id="Capa_1" x="0px" y="0px" width="331px" height="56.5px" viewBox="0 0 331 56.5" xml:space="preserve"> <g> <path fill="#0071BC" d="M130.2695313,21.1503906c-0.453125-2.2236328-1.3208008-4.1347656-2.0048828-5.3930664 c-0.5522461-1.0219727-0.9833984-1.6166992-0.9648438-1.5961914c-0.7929688-1.659668-0.9829102-3.4008789-0.5537109-5.2260742 l-0.1025391-0.0678711h-0.0019531l-0.0014648-0.0014648c-1.6186523,0.9438477-3.340332,1.2734375-5.1591797,1 c0.0258789,0.012207-0.6850586-0.2299805-1.8461914-0.4633789c-1.1577148-0.2998047-2.3735352-0.4589844-3.6269531-0.4589844 c-0.534668,0-1.0620117,0.0307617-1.581543,0.0874023c-5.2597656,0.5732422-9.6704102,3.972168-11.6806641,8.6479492 c-0.7519531,1.7480469-1.1699219,3.6738281-1.1699219,5.6967773c0,7.9711914,6.4614258,14.4331055,14.4321289,14.4331055 c3.7324219,0,7.1347656-1.4169922,9.6958008-3.7426758c2.9101563-2.640625,4.737793-6.4516602,4.737793-10.6904297 C130.4414063,22.6181641,130.3828125,21.8754883,130.2695313,21.1503906z M116.2021484,14.3320313 c4.8334961,0,8.7519531,3.918457,8.7519531,8.7524414c0,4.8344727-3.918457,8.753418-8.7519531,8.753418 s-8.7539063-3.9189453-8.7539063-8.753418C107.4482422,18.2504883,111.3686523,14.3320313,116.2021484,14.3320313z"></path> <g> <g> <path fill="#E98000" d="M73.1816406,8.8081055h11.065918c6.4619141,0,10.3686523,3.8300781,10.3686523,9.4399414 c0,6.269043-4.8745117,9.5185547-10.949707,9.5185547h-4.5268555v8.1254883h-5.9580078V8.8081055z M83.8603516,22.465332 c2.9790039,0,4.7202148-1.7797852,4.7202148-4.1777344c0-2.6704102-1.8569336-4.1020508-4.8359375-4.1020508h-4.6049805 v8.2797852H83.8603516z"></path> <path fill="#E98000" d="M137.6064453,31.9448242l3.5205078-4.2167969 c2.4384766,2.0117188,4.9921875,3.2890625,8.0869141,3.2890625c2.4375,0,3.9072266-0.9682617,3.9072266-2.6313477 c0-1.5092773-0.9277344-2.2822266-5.4550781-3.4443359c-5.4560547-1.3920898-8.9765625-2.9013672-8.9765625-8.3569336 c0-4.9135742,3.9462891-8.1625977,9.4794922-8.1625977c3.9472656,0,7.3134766,1.237793,10.0595703,3.4428711 l-3.0947266,4.4873047c-2.3994141-1.6635742-4.7597656-2.6699219-7.0429688-2.6699219 c-2.28125,0-3.4824219,1.0449219-3.4824219,2.4384766c0,1.7797852,1.1621094,2.3603516,5.8427734,3.5585938 c5.4951172,1.4321289,8.5898438,3.4047852,8.5898438,8.2036133c0,5.3779297-4.1015625,8.3959961-9.9433594,8.3959961 C144.9960938,36.2788086,140.8554688,34.8476563,137.6064453,31.9448242z"></path> <path fill="#E98000" d="M165.8525391,31.9448242l3.5214844-4.2167969c2.4375,2.0117188,4.9912109,3.2890625,8.0869141,3.2890625 c2.4375,0,3.9082031-0.9682617,3.9082031-2.6313477c0-1.5092773-0.9277344-2.2822266-5.4560547-3.4443359 c-5.4560547-1.3920898-8.9765625-2.9013672-8.9765625-8.3569336c0-4.9135742,3.9472656-8.1625977,9.4794922-8.1625977 c3.9462891,0,7.3125,1.237793,10.0605469,3.4428711l-3.0957031,4.4873047 c-2.3984375-1.6635742-4.7597656-2.6699219-7.0419922-2.6699219c-2.2832031,0-3.4824219,1.0449219-3.4824219,2.4384766 c0,1.7797852,1.1611328,2.3603516,5.8417969,3.5585938c5.4941406,1.4321289,8.5908203,3.4047852,8.5908203,8.2036133 c0,5.3779297-4.1015625,8.3959961-9.9443359,8.3959961C173.2421875,36.2788086,169.1035156,34.8476563,165.8525391,31.9448242z"></path> <path fill="#E98000" d="M195.9189453,24.2841797V8.8081055h5.9580078v15.3208008 c0,4.4111328,2.2060547,6.6938477,5.8427734,6.6938477s5.8417969-2.2050781,5.8417969-6.5004883V8.8081055h5.9589844V24.090332 c0,8.2036133-4.6025391,12.2270508-11.8789063,12.2270508C200.3681641,36.3173828,195.9189453,32.2553711,195.9189453,24.2841797 z"></path> <path fill="#E98000" d="M229.4658203,8.8081055h6.4228516l7.1201172,11.4521484l7.1181641-11.4521484h6.4238281v27.0839844 h-5.9199219V18.2099609l-7.6220703,11.5693359h-0.1552734l-7.5449219-11.4541016v17.5668945h-5.8427734V8.8081055z"></path> <path fill="#E98000" d="M266.4960938,24.2841797V8.8081055h5.9589844v15.3208008 c0,4.4111328,2.2050781,6.6938477,5.8408203,6.6938477c3.6376953,0,5.8427734-2.2050781,5.8427734-6.5004883V8.8081055h5.9589844 V24.090332c0,8.2036133-4.6035156,12.2270508-11.8789063,12.2270508 C270.9443359,36.3173828,266.4960938,32.2553711,266.4960938,24.2841797z"></path> <path fill="#E98000" d="M298.1855469,31.9448242l3.5224609-4.2167969 c2.4365234,2.0117188,4.9892578,3.2890625,8.0849609,3.2890625c2.4375,0,3.9072266-0.9682617,3.9072266-2.6313477 c0-1.5092773-0.9277344-2.2822266-5.4541016-3.4443359c-5.4560547-1.3920898-8.9775391-2.9013672-8.9775391-8.3569336 c0-4.9135742,3.9482422-8.1625977,9.4794922-8.1625977c3.9472656,0,7.3134766,1.237793,10.0605469,3.4428711 l-3.0957031,4.4873047c-2.3994141-1.6635742-4.7587891-2.6699219-7.0419922-2.6699219s-3.4814453,1.0449219-3.4814453,2.4384766 c0,1.7797852,1.1611328,2.3603516,5.8417969,3.5585938c5.4941406,1.4321289,8.5888672,3.4047852,8.5888672,8.2036133 c0,5.3779297-4.1005859,8.3959961-9.9423828,8.3959961C305.5751953,36.2788086,301.4355469,34.8476563,298.1855469,31.9448242z"></path> </g> <g> <g> <path fill="#0071BC" d="M73.3691406,43.7851563c0-0.1835938,0.1577148-0.3413086,0.3417969-0.3413086h3.4516602 c1.0371094,0,1.8774414,0.3022461,2.3891602,0.8139648c0.3808594,0.3808594,0.5908203,0.8662109,0.5908203,1.4443359v0.0258789 c0,1.2470703-0.8139648,1.8769531-1.5620117,2.1791992c1.1025391,0.2885742,2.0742188,0.918457,2.0742188,2.1918945v0.0263672 c0,1.5356445-1.3129883,2.5073242-3.2949219,2.5073242h-3.6489258c-0.184082,0-0.3417969-0.1577148-0.3417969-0.3413086 V43.7851563z M77.0839844,47.6835938c1.378418,0,2.362793-0.6689453,2.362793-1.8901367v-0.0263672 c0-1.0107422-0.8266602-1.6928711-2.2973633-1.6928711h-3.0976563v3.609375H77.0839844z M77.3857422,52.0024414 c1.5751953,0,2.5727539-0.7216797,2.5727539-1.8769531v-0.0263672c0-1.1289063-0.9838867-1.7851563-2.7958984-1.7851563 h-3.1108398v3.6884766H77.3857422z"></path> <path fill="#0071BC" d="M83.6977539,48.8129883v-5.0805664c0-0.1835938,0.1572266-0.3408203,0.3413086-0.3408203 c0.1835938,0,0.3408203,0.1572266,0.3408203,0.3408203v5.0146484c0,2.1660156,1.168457,3.4130859,3.1113281,3.4130859 c1.8637695,0,3.0585938-1.1289063,3.0585938-3.347168v-5.0805664c0-0.1835938,0.1577148-0.3408203,0.3413086-0.3408203 s0.3413086,0.1572266,0.3413086,0.3408203v5.0014648c0,2.6386719-1.5356445,4.043457-3.7675781,4.043457 C85.2597656,52.7773438,83.6977539,51.3857422,83.6977539,48.8129883z"></path> <path fill="#0071BC" d="M94.9057617,43.7324219c0-0.1835938,0.1572266-0.3408203,0.3413086-0.3408203 c0.1835938,0,0.3408203,0.1572266,0.3408203,0.3408203V52.34375c0,0.184082-0.1572266,0.3413086-0.3408203,0.3413086 c-0.184082,0-0.3413086-0.1572266-0.3413086-0.3413086V43.7324219z"></path> <path fill="#0071BC" d="M99.4067383,43.7324219c0-0.1835938,0.1572266-0.3408203,0.3413086-0.3408203 c0.1835938,0,0.3413086,0.1572266,0.3413086,0.3408203v8.2700195h5.1323242 c0.1708984,0,0.3154297,0.1445313,0.3154297,0.3149414c0,0.1708984-0.1445313,0.3154297-0.3154297,0.3154297h-5.4736328 c-0.184082,0-0.3413086-0.1577148-0.3413086-0.3413086V43.7324219z"></path> <path fill="#0071BC" d="M108.527832,43.7851563c0-0.1835938,0.1582031-0.3413086,0.3417969-0.3413086h2.7172852 c2.8876953,0,4.8828125,1.9824219,4.8828125,4.5683594v0.0263672c0,2.5854492-1.9951172,4.5942383-4.8828125,4.5942383 h-2.7172852c-0.1835938,0-0.3417969-0.1577148-0.3417969-0.3413086V43.7851563z M111.5869141,52.0024414 c2.5595703,0,4.1738281-1.7456055,4.1738281-3.9379883v-0.0258789c0-2.1791992-1.6142578-3.9643555-4.1738281-3.9643555 h-2.3759766v7.9282227H111.5869141z"></path> <path fill="#0071BC" d="M124.3417969,51.4775391c-0.0654297-0.0527344-0.1313477-0.1445313-0.1313477-0.262207 c0-0.184082,0.1577148-0.3417969,0.3413086-0.3417969c0.0927734,0,0.1713867,0.0395508,0.2236328,0.0791016 c0.918457,0.8266602,1.8378906,1.1943359,3.0981445,1.1943359c1.3774414,0,2.3227539-0.7744141,2.3227539-1.824707v-0.0263672 c0-0.9711914-0.5107422-1.5356445-2.5991211-1.9555664c-2.2045898-0.4462891-3.0976563-1.1948242-3.0976563-2.5859375 v-0.0263672c0-1.3652344,1.2470703-2.4155273,2.9536133-2.4155273c1.234375,0,2.0869141,0.3154297,2.9277344,0.9453125 c0.0654297,0.0527344,0.1435547,0.1445313,0.1435547,0.2758789c0,0.1835938-0.1572266,0.3408203-0.3408203,0.3408203 c-0.078125,0-0.1572266-0.0258789-0.2226563-0.078125c-0.8007813-0.6171875-1.6020508-0.8666992-2.5341797-0.8666992 c-1.3520508,0-2.2441406,0.7744141-2.2441406,1.7324219v0.0268555c0,0.9711914,0.4985352,1.5620117,2.6772461,2.0078125 c2.1264648,0.4335938,3.019043,1.1948242,3.019043,2.5336914v0.0263672c0,1.4833984-1.2734375,2.5073242-3.0454102,2.5073242 C126.4555664,52.7641602,125.3789063,52.3305664,124.3417969,51.4775391z"></path> <path fill="#0071BC" d="M133.7119141,48.0644531v-0.0258789c0-2.5073242,1.8515625-4.7519531,4.6337891-4.7519531 c2.7832031,0,4.6083984,2.2182617,4.6083984,4.7255859v0.0263672c0,2.5068359-1.8515625,4.7514648-4.6337891,4.7514648 C135.5371094,52.7900391,133.7119141,50.5717773,133.7119141,48.0644531z M142.2451172,48.0644531v-0.0258789 c0-2.2714844-1.6542969-4.1352539-3.9248047-4.1352539c-2.2714844,0-3.8984375,1.8378906-3.8984375,4.1088867v0.0263672 c0,2.2709961,1.6533203,4.1347656,3.9238281,4.1347656C140.6171875,52.1733398,142.2451172,50.3354492,142.2451172,48.0644531z"></path> <path fill="#0071BC" d="M146.2724609,43.7851563c0-0.1835938,0.1582031-0.3413086,0.3417969-0.3413086h5.8671875 c0.1708984,0,0.3154297,0.1445313,0.3154297,0.3154297c0,0.1704102-0.1445313,0.3149414-0.3154297,0.3149414h-5.5263672 v3.7670898h4.9355469c0.1708984,0,0.3154297,0.1445313,0.3154297,0.3154297 c0,0.1704102-0.1445313,0.3144531-0.3154297,0.3144531h-4.9355469V52.34375c0,0.184082-0.1582031,0.3413086-0.3408203,0.3413086 c-0.1835938,0-0.3417969-0.1572266-0.3417969-0.3413086V43.7851563z"></path> <path fill="#0071BC" d="M158.4257813,44.0742188h-2.9404297c-0.1699219,0-0.3154297-0.1445313-0.3154297-0.3149414 c0-0.1708984,0.1455078-0.3154297,0.3154297-0.3154297h6.5634766c0.1708984,0,0.3144531,0.1445313,0.3144531,0.3154297 c0,0.1704102-0.1435547,0.3149414-0.3144531,0.3149414h-2.9404297V52.34375c0,0.184082-0.1572266,0.3413086-0.3417969,0.3413086 c-0.1835938,0-0.3408203-0.1572266-0.3408203-0.3413086V44.0742188z"></path> <path fill="#0071BC" d="M164.8427734,43.9165039c-0.0263672-0.065918-0.0390625-0.1181641-0.0390625-0.1704102 c0-0.184082,0.1699219-0.3544922,0.3544922-0.3544922c0.1835938,0,0.3144531,0.1572266,0.3671875,0.3149414l2.7958984,7.9155273 l2.6123047-7.9677734c0.0527344-0.1445313,0.1445313-0.2626953,0.328125-0.2626953h0.0263672 c0.1708984,0,0.2753906,0.1181641,0.328125,0.2626953l2.6123047,7.9677734l2.8085938-7.9550781 c0.0654297-0.1704102,0.1708984-0.2753906,0.328125-0.2753906c0.1708984,0,0.3417969,0.1704102,0.3417969,0.3408203 c0,0.0527344-0.0263672,0.1181641-0.0527344,0.184082l-3.0712891,8.519043 c-0.0664063,0.1708984-0.1708984,0.3022461-0.3544922,0.3022461h-0.0273438 c-0.1835938,0-0.3007813-0.1313477-0.3535156-0.3022461l-2.5996094-7.7182617l-2.5986328,7.7182617 c-0.0527344,0.1708984-0.1708984,0.3022461-0.3544922,0.3022461h-0.0263672 c-0.1835938,0-0.2880859-0.1181641-0.3535156-0.3022461L164.8427734,43.9165039z"></path> <path fill="#0071BC" d="M179.0820313,52.1860352l3.9248047-8.5058594 c0.0927734-0.1967773,0.2236328-0.328125,0.4589844-0.328125h0.0263672c0.2363281,0,0.3681641,0.1313477,0.4599609,0.328125 l3.9121094,8.4799805c0.0390625,0.0786133,0.0527344,0.144043,0.0527344,0.2099609 c0,0.1708984-0.1455078,0.3149414-0.3291016,0.3149414c-0.1572266,0-0.2753906-0.1181641-0.3408203-0.262207 l-1.0761719-2.362793H180.75l-1.0771484,2.3754883c-0.0654297,0.1577148-0.1708984,0.2495117-0.328125,0.2495117 c-0.1708984,0-0.3154297-0.1313477-0.3154297-0.2885742C179.0292969,52.34375,179.0429688,52.2651367,179.0820313,52.1860352z M185.8818359,49.4428711l-2.4160156-5.3164063l-2.4277344,5.3164063H185.8818359z"></path> <path fill="#0071BC" d="M191.0253906,43.7851563c0-0.1835938,0.1572266-0.3413086,0.3408203-0.3413086h3.5185547 c1.1279297,0,2.0341797,0.3544922,2.5859375,0.9057617c0.4326172,0.4335938,0.6953125,1.050293,0.6953125,1.706543v0.0263672 c0,1.5361328-1.1425781,2.4150391-2.6914063,2.625l2.6123047,3.3867188 c0.0654297,0.0791016,0.1054688,0.1577148,0.1054688,0.2363281c0,0.184082-0.1708984,0.3544922-0.3544922,0.3544922 c-0.1308594,0-0.2236328-0.0786133-0.3017578-0.1835938l-2.8222656-3.6757813h-3.0068359V52.34375 c0,0.184082-0.15625,0.3413086-0.3408203,0.3413086c-0.1835938,0-0.3408203-0.1572266-0.3408203-0.3413086V43.7851563z M194.8046875,48.2089844c1.5361328,0,2.6787109-0.7744141,2.6787109-2.1000977v-0.0263672 c0-1.2338867-0.9707031-2.0083008-2.6386719-2.0083008h-3.1376953v4.1347656H194.8046875z"></path> <path fill="#0071BC" d="M201.5107422,52.2915039v-8.5063477c0-0.1835938,0.1582031-0.3413086,0.3417969-0.3413086h5.9335938 c0.1699219,0,0.3144531,0.1445313,0.3144531,0.3154297c0,0.1704102-0.1445313,0.3149414-0.3144531,0.3149414h-5.5917969 v3.609375h5c0.171875,0,0.3154297,0.1445313,0.3154297,0.3154297c0,0.1704102-0.1435547,0.3149414-0.3154297,0.3149414h-5 v3.6884766h5.6572266c0.1708984,0,0.3144531,0.1445313,0.3144531,0.3149414 c0,0.1708984-0.1435547,0.3154297-0.3144531,0.3154297h-5.9990234 C201.6689453,52.6328125,201.5107422,52.4750977,201.5107422,52.2915039z"></path> <path fill="#66A844" d="M221.1699219,43.7851563c0-0.1835938,0.1582031-0.3413086,0.3417969-0.3413086h3.4521484 c1.0371094,0,1.8769531,0.3022461,2.3896484,0.8139648c0.3808594,0.3808594,0.5908203,0.8662109,0.5908203,1.4443359v0.0258789 c0,1.2470703-0.8144531,1.8769531-1.5625,2.1791992c1.1025391,0.2885742,2.0742188,0.918457,2.0742188,2.1918945v0.0263672 c0,1.5356445-1.3125,2.5073242-3.2949219,2.5073242h-3.6494141c-0.1835938,0-0.3417969-0.1577148-0.3417969-0.3413086 V43.7851563z M224.8847656,47.6835938c1.3789063,0,2.3632813-0.6689453,2.3632813-1.8901367v-0.0263672 c0-1.0107422-0.8271484-1.6928711-2.2978516-1.6928711h-3.0976563v3.609375H224.8847656z M225.1875,52.0024414 c1.5742188,0,2.5722656-0.7216797,2.5722656-1.8769531v-0.0263672c0-1.1289063-0.984375-1.7851563-2.7958984-1.7851563 h-3.1113281v3.6884766H225.1875z"></path> <path fill="#66A844" d="M231.4990234,48.8129883v-5.0805664c0-0.1835938,0.1572266-0.3408203,0.3408203-0.3408203 s0.3408203,0.1572266,0.3408203,0.3408203v5.0146484c0,2.1660156,1.1699219,3.4130859,3.1113281,3.4130859 c1.8642578,0,3.0585938-1.1289063,3.0585938-3.347168v-5.0805664c0-0.1835938,0.1582031-0.3408203,0.3417969-0.3408203 s0.3408203,0.1572266,0.3408203,0.3408203v5.0014648c0,2.6386719-1.5351563,4.043457-3.7675781,4.043457 C233.0605469,52.7773438,231.4990234,51.3857422,231.4990234,48.8129883z"></path> <path fill="#66A844" d="M242.7070313,43.7324219c0-0.1835938,0.1572266-0.3408203,0.3408203-0.3408203 s0.3417969,0.1572266,0.3417969,0.3408203V52.34375c0,0.184082-0.1582031,0.3413086-0.3417969,0.3413086 s-0.3408203-0.1572266-0.3408203-0.3413086V43.7324219z"></path> <path fill="#66A844" d="M247.2080078,43.7324219c0-0.1835938,0.1572266-0.3408203,0.3417969-0.3408203 c0.1826172,0,0.3408203,0.1572266,0.3408203,0.3408203v8.2700195h5.1328125 c0.1708984,0,0.3154297,0.1445313,0.3154297,0.3149414c0,0.1708984-0.1445313,0.3154297-0.3154297,0.3154297h-5.4736328 c-0.1845703,0-0.3417969-0.1577148-0.3417969-0.3413086V43.7324219z"></path> <path fill="#66A844" d="M256.3291016,43.7851563c0-0.1835938,0.1582031-0.3413086,0.3408203-0.3413086h2.7177734 c2.8876953,0,4.8828125,1.9824219,4.8828125,4.5683594v0.0263672c0,2.5854492-1.9951172,4.5942383-4.8828125,4.5942383 h-2.7177734c-0.1826172,0-0.3408203-0.1577148-0.3408203-0.3413086V43.7851563z M259.3876953,52.0024414 c2.5605469,0,4.1748047-1.7456055,4.1748047-3.9379883v-0.0258789c0-2.1791992-1.6142578-3.9643555-4.1748047-3.9643555 h-2.3759766v7.9282227H259.3876953z"></path> <path fill="#66A844" d="M275.6611328,52.4228516l-3.7412109-8.559082 c-0.0263672-0.0522461-0.0263672-0.0786133-0.0263672-0.144043c0-0.1577148,0.1445313-0.328125,0.3408203-0.328125 c0.171875,0,0.2890625,0.1181641,0.3554688,0.2753906l3.5048828,8.2304688l3.5175781-8.2431641 c0.0654297-0.1445313,0.1845703-0.2626953,0.3408203-0.2626953c0.1845703,0,0.3291016,0.1572266,0.3291016,0.3149414 c0,0.0527344,0,0.0786133-0.0263672,0.1313477l-3.7539063,8.5849609 c-0.0791016,0.1835938-0.1972656,0.3017578-0.4072266,0.3017578h-0.0273438 C275.8574219,52.7246094,275.7402344,52.6064453,275.6611328,52.4228516z"></path> <path fill="#66A844" d="M281.4746094,52.1860352l3.9248047-8.5058594 c0.0917969-0.1967773,0.2226563-0.328125,0.4599609-0.328125h0.0253906c0.2363281,0,0.3681641,0.1313477,0.4599609,0.328125 l3.9111328,8.4799805c0.0400391,0.0786133,0.0527344,0.144043,0.0527344,0.2099609 c0,0.1708984-0.1435547,0.3149414-0.328125,0.3149414c-0.1572266,0-0.2753906-0.1181641-0.3408203-0.262207l-1.0761719-2.362793 h-5.421875l-1.0771484,2.3754883c-0.0654297,0.1577148-0.1699219,0.2495117-0.328125,0.2495117 c-0.1699219,0-0.3134766-0.1313477-0.3134766-0.2885742C281.4228516,52.34375,281.4355469,52.2651367,281.4746094,52.1860352z M288.2744141,49.4428711l-2.4150391-5.3164063l-2.4287109,5.3164063H288.2744141z"></path> <path fill="#66A844" d="M293.4169922,43.7324219c0-0.1835938,0.1582031-0.3408203,0.3417969-0.3408203 s0.3417969,0.1572266,0.3417969,0.3408203v8.2700195h5.1318359c0.1708984,0,0.3154297,0.1445313,0.3154297,0.3149414 c0,0.1708984-0.1445313,0.3154297-0.3154297,0.3154297h-5.4736328c-0.1835938,0-0.3417969-0.1577148-0.3417969-0.3413086 V43.7324219z"></path> <path fill="#66A844" d="M302.1318359,48.8129883v-5.0805664c0-0.1835938,0.1572266-0.3408203,0.3408203-0.3408203 c0.1845703,0,0.3417969,0.1572266,0.3417969,0.3408203v5.0146484c0,2.1660156,1.1689453,3.4130859,3.1113281,3.4130859 c1.8632813,0,3.0585938-1.1289063,3.0585938-3.347168v-5.0805664c0-0.1835938,0.1572266-0.3408203,0.3408203-0.3408203 c0.1845703,0,0.3408203,0.1572266,0.3408203,0.3408203v5.0014648c0,2.6386719-1.5351563,4.043457-3.7666016,4.043457 C303.6943359,52.7773438,302.1318359,51.3857422,302.1318359,48.8129883z"></path> <path fill="#66A844" d="M313.2480469,52.2915039v-8.5063477c0-0.1835938,0.1572266-0.3413086,0.3408203-0.3413086h5.9335938 c0.1708984,0,0.3154297,0.1445313,0.3154297,0.3154297c0,0.1704102-0.1445313,0.3149414-0.3154297,0.3149414h-5.5917969 v3.609375h5.0019531c0.1699219,0,0.3134766,0.1445313,0.3134766,0.3154297c0,0.1704102-0.1435547,0.3149414-0.3134766,0.3149414 h-5.0019531v3.6884766h5.6582031c0.1699219,0,0.3144531,0.1445313,0.3144531,0.3149414 c0,0.1708984-0.1445313,0.3154297-0.3144531,0.3154297h-6 C313.4052734,52.6328125,313.2480469,52.4750977,313.2480469,52.2915039z"></path> </g> <circle fill="#0071BC" cx="214.3261719" cy="48.3671875" r="0.7890625"></circle> </g> </g> <g> <path fill="#E98000" d="M42.3256836,51.8295898c8.2348633-2.4165039,13.7260742-9.0576172,15.0288086-12.2182617 L56.8066406,38.59375l-0.1889648-0.0380859l-0.1630859-0.0629883l-0.1630859,0.0878906l-0.1132813-0.1762695l-1.2080078-0.4404297 l-0.5546875-0.4619141l-0.3295898-0.2651367l1.3891602-1.7304688c0.0439453-0.0556641,0.0820313-0.112793,0.1196289-0.1699219 c-0.0170898-0.1875-0.0595703-0.3823242-0.1308594-0.5844727c-0.1020508-0.2895508-0.253418-0.5893555-0.4536133-0.8955078 c-0.1333008-0.2041016-0.2880859-0.4121094-0.4648438-0.6225586c-0.2661133-0.3183594-0.5800781-0.6425781-0.9438477-0.9765625 l-6.109375-5.5986328c-0.4467773-0.409668-0.84375-0.8378906-1.1923828-1.2832031 c-0.1166992-0.1489258-0.2275391-0.2988281-0.3334961-0.4511719c0.9814453,2.859375,0.5488281,6.03125-1.0458984,8.8764648 c-0.2563477,0.4575195-0.5800781,0.8706055-0.8867188,1.2822266c-1.6586914,2.2285156-4.0512695,3.8579102-6.6357422,4.3618164 c0.0019531,0-0.1064453,0.1293945-0.1049805,0.1293945c-0.0463867,0.0849609,0.0981445,0.0600586,0.1113281,0.0849609"></path> <path fill="#C66A0B" d="M42.1137695,50.6992188c-0.3276367-1.2929688-0.7104492-2.5478516-1.1445313-3.7680664 C41.515625,48.5307617,41.8798828,49.800293,42.1137695,50.6992188z"></path> <path fill="#C66A0B" d="M40.984375,46.9750977c-0.0053711-0.0146484-0.0092773-0.0297852-0.0151367-0.0439453 c-0.0546875-0.1547852-0.1157227-0.3061523-0.1723633-0.4599609 C40.8588867,46.6391602,40.9238281,46.8056641,40.984375,46.9750977z"></path> <path fill="#C66A0B" d="M39.425293,51.3037109c0.0493164,0.378418,0.0917969,0.7602539,0.1313477,1.1425781 c0.0019531,0,0.0039063,0,0.0063477-0.0004883c-0.0258789-0.2641602-0.0693359-0.6459961-0.1367188-1.1376953 C39.425293,51.3071289,39.425293,51.3041992,39.425293,51.3037109z"></path> <polygon fill="#264E9A" points="55.800293,40.6035156 55.7988281,40.6049805 55.7988281,40.6049805 "></polygon> <path fill="#E98000" d="M37.8852539,17.746582c-0.5585938-0.3291016-1.0898438-0.7133789-1.5844727-1.1679688 l-4.3061523-6.2744141l-1.394043-6.0908203c0,0-1.6855469,0.4438477-2.7768555,0.7568359 c-1.3076172,0.4057617-3.9492188,1.4536133-6.9296875,3.6123047c-1.3520508,0.8979492-4.9863281,4.4638672-6.543457,7.4121094 c5.2905273,3.824707,8.9311523,6.5063477,9.9951172,7.8525391c0.050293,0.0541992,0.3422852,0.4765625,0.3916016,0.5317383 c-0.1694336,1.0893555,0.0668945,0.5522461,0.3466797-0.1884766c0.0751953,0.0185547,0.1376953,0.019043,0.15625-0.0258789 c0.1538086-0.3574219,0.3251953-0.7099609,0.5195313-1.0571289c2.4711914-4.409668,7.5268555-6.4550781,12.2080078-5.3076172 C37.9399414,17.7836914,37.9135742,17.7626953,37.8852539,17.746582z"></path> <path fill="#0071BC" d="M40.984375,46.9750977c-0.0605469-0.1694336-0.1254883-0.3359375-0.1875-0.5039063 c-0.2949219-0.7998047-0.6074219-1.5898438-0.9443359-2.3623047c-0.0717773-0.1655273-0.1474609-0.3286133-0.2211914-0.4926758 c-0.0537109-0.1196289-0.1088867-0.2363281-0.1630859-0.3525391c-0.175293-0.3823242-0.3598633-0.7592773-0.5449219-1.1362305 c-0.0888672-0.1787109-0.1743164-0.3496094-0.2573242-0.5151367c-0.1860352-0.3671875-0.3725586-0.730957-0.5668945-1.0922852 c-0.1977539-0.3652344-0.3950195-0.7329102-0.6020508-1.0947266c0.0053711-0.0009766,0.0107422-0.0024414,0.0161133-0.0039063 c-2.512207,0.5327148-5.2197266,0.1933594-7.6362305-1.159668c-5.0068359-2.8066406-6.9594727-8.9516602-4.6381836-14.0854492 c0-0.0014648-0.0009766-0.0024414-0.0024414-0.0029297c-0.0004883,0.0014648-0.0004883,0.0019531-0.0014648,0.0029297 c-0.0224609-0.0214844-0.0449219-0.0410156-0.0688477-0.0620117c-6.9863281-5.9594727-9.8588867-7.8095703-10.7094727-8.3037109 c-2.6069336,4.4526367-3.8398438,9.7583008-3.1879883,15.277832 c1.5942383,13.4643555,13.8032227,23.0893555,27.2695313,21.4956055c1.3193359-0.15625,2.6005859-0.4174805,3.8393555-0.7695313 c-0.1933594-0.8598633-0.015625-0.1347656-0.2651367-1.1196289C41.7895508,49.4194336,41.4116211,48.1801758,40.984375,46.9750977 z"></path> <path fill="#EA8D27" d="M25.2348633,24.1762695c0.0009766-0.0009766,0.0009766-0.0014648,0.0014648-0.0029297 c-0.0234375-0.0200195-0.0458984-0.0385742-0.0703125-0.059082 C25.1899414,24.1352539,25.2124023,24.1547852,25.2348633,24.1762695z"></path> <path fill="#C66A0B" d="M25.2402344,24.1645508c-0.0014648,0.0029297-0.0019531,0.0058594-0.0039063,0.0087891 c0.0014648,0.0004883,0.0019531,0.0014648,0.0024414,0.0029297C25.2480469,24.184082,25.2470703,24.1777344,25.2402344,24.1645508 z"></path> <polygon fill="#C66A0B" points="25.2363281,24.1733398 25.2387695,24.1762695 25.2363281,24.1733398 "></polygon> <path fill="#DD7D12" d="M40.9692383,46.9311523c-0.0009766-0.0029297-0.0014648-0.0048828-0.0029297-0.0087891 c-0.2480469-0.7270508-0.5410156-1.4545898-0.8408203-2.1669922c0.234375,0.5649414,0.4580078,1.1362305,0.6713867,1.7158203 C40.8535156,46.625,40.9145508,46.7763672,40.9692383,46.9311523z"></path> <path fill="#DD7D12" d="M40.796875,46.4711914c-0.2133789-0.5795898-0.4370117-1.1508789-0.6713867-1.7158203 c-0.0922852-0.215332-0.1796875-0.4365234-0.2729492-0.6464844C40.1894531,44.8813477,40.5019531,45.6713867,40.796875,46.4711914 z"></path> <path fill="#DD7D12" d="M38.0991211,40.5200195c-0.3632813-0.6796875-0.6020508-1.0947266-0.6020508-1.0947266 C37.7041016,39.7871094,37.9013672,40.1547852,38.0991211,40.5200195z"></path> <path fill="#C66A0B" d="M38.9233398,42.1274414c-0.0844727-0.1728516-0.1708984-0.3447266-0.2573242-0.5151367 C38.7490234,41.777832,38.8344727,41.9487305,38.9233398,42.1274414z"></path> <path fill="#C66A0B" d="M40.984375,46.9750977c0.4272461,1.2050781,0.8051758,2.4443359,1.1279297,3.7197266 C41.7905273,49.4262695,41.4121094,48.1850586,40.984375,46.9750977z"></path> <path fill="#C66A0B" d="M39.4682617,43.2636719c-0.1855469-0.3984375-0.3691406-0.7792969-0.5449219-1.1362305 C39.1083984,42.5043945,39.2929688,42.8813477,39.4682617,43.2636719z"></path> <path fill="#C66A0B" d="M38.6660156,41.6123047c-0.2084961-0.4106445-0.4013672-0.7802734-0.5668945-1.0922852 C38.293457,40.8813477,38.4799805,41.2451172,38.6660156,41.6123047z"></path> <path fill="#66A844" d="M30.1918945,9.5029297c0.0600586,0.1704102,0.1254883,0.3369141,0.1875,0.5053711 c0.2958984,0.8017578,0.6088867,1.5927734,0.9462891,2.3671875c0.0722656,0.1655273,0.1469727,0.3291016,0.2211914,0.4931641 c0.0541992,0.1201172,0.1098633,0.2363281,0.1640625,0.3540039c0.175293,0.3823242,0.3603516,0.7602539,0.5458984,1.1376953 c0.0878906,0.1787109,0.1743164,0.3510742,0.2578125,0.5166016c0.1860352,0.3671875,0.3730469,0.7324219,0.5673828,1.09375 c0.1992188,0.3666992,0.3969727,0.7348633,0.6035156,1.0981445c-0.0053711,0.0004883,0.2148438,0.3857422,0.4365234,0.46875 c3.0908203-0.2895508,5.2548828,0.6616211,6.7641602,1.0668945c0,0,0.8681641,0.2832031,1.4746094,0.2548828 c1.347168-0.1313477,2.0566406-0.5092773,2.3398438-0.6381836c0.090332,0.0039063,0.0737305,0.0385742,0.0732422,0.0668945 c-0.2509766,0.5146484-0.4760742,1.2626953-0.4902344,1.8139648c-0.2055664,2.8134766,3.4418945,5.5302734,1.4394531,12.0009766 c0.0004883,0.0014648,0.2460938,0.246582,0.2480469,0.2470703c0-0.0004883,0.0004883-0.0014648,0.0009766-0.0029297 c0.0219727,0.0214844,0.0449219,0.0415039,0.0683594,0.0629883c7.0009766,5.9711914,9.902832,6.9365234,11.2866211,7.2753906 c2.4711914-5.3012695,3.0561523-9.753418,2.6386719-14.2631836C58.7133789,11.8935547,46.1357422,2.2861328,32.6430664,3.8828125 c-1.3227539,0.1572266-2.605957,0.4189453-3.847168,0.7705078c0.0844727,0.3764648,0.1713867,0.7514648,0.2651367,1.1230469 C29.3847656,7.0551758,29.7636719,8.2958984,30.1918945,9.5029297z"></path> </g> </g> </svg> 